<svg xmlns="http://www.w3.org/2000/svg" width="114" height="111">
    <rect width="100%" height="100%" fill="none"/>
    <g class="currentLayer">
        <path d="M22.034 105.073v-2.563c0-5.45-3.017-8.118-8.558-8.118l-4.506.005c-5.557 0-8.573 2.663-8.573 8.113v8.02h34.66l-.005-5.449-13.018-.008zm-4.953.007H5.349v-2.577c0-1.731.788-2.669 3.269-2.669h5.201c2.469 0 3.263.938 3.263 2.669v2.577zm3.864-20.77c-.005-2.469 1.195-3.566 4.408-3.566h5.442c2.816 0 3.376-.198 4.257-.493v-5.542c-1.288.552-2.525.595-4.205.605l-5.338-.011c-3.621.011-6.245.891-7.385 3.616-1.135-2.421-3.468-3.567-7.025-3.567H8.367c-5.337 0-7.969 2.424-7.969 8.063v8.229l34.655-.011.005-5.444H20.946V84.31zm-4.948 1.878l-10.648.004v-2.618c0-1.926 1.089-2.774 3.565-2.768h3.414c2.779 0 3.669 1.232 3.675 3.251l-.006 2.131zm10.737-30.512H8.723c-5.55 0-8.714 2.924-8.714 8.263-.009 5.354 3.164 8.276 8.714 8.276h18.011c5.555 0 8.721-2.923 8.715-8.276 0-5.339-3.16-8.263-8.715-8.263zm.352 11.089H8.374c-2.484 0-3.413-1.089-3.422-2.826.009-1.718.938-2.821 3.414-2.817l18.72-.004c2.468.004 3.412 1.104 3.412 2.83 0 1.728-.934 2.817-3.412 2.817zm-.352-29.985c-9.891 0-11.235 10.654-18.368 10.654-2.476-.01-3.414-.998-3.414-2.725.009-1.738.949-2.726 3.414-2.726h1.437v-5.15h-1.08C3.173 36.833 0 39.548 0 44.854c.009 5.305 3.173 8.02 8.723 8.02 9.889 0 11.23-10.643 18.363-10.643 2.478 0 3.36 1.084 3.364 2.821-.004 1.728-.896 2.826-3.364 2.826h-2.484v5.141h2.135c5.542 0 8.712-2.768 8.718-8.111 0-5.36-3.166-8.128-8.721-8.128zM.397 18.451v16.828l4.952-.01v-5.681h29.703l.005-5.45H5.349v-5.697zm8.326-1.922h18.011c5.555 0 8.715-2.914 8.715-8.262 0-5.343-3.16-8.257-8.715-8.257L8.718 0C3.173.01 0 2.934.009 8.267c0 5.348 3.164 8.262 8.714 8.262zM8.366 5.45h18.725c2.464 0 3.408 1.095 3.413 2.817-.005 1.729-.949 2.821-3.417 2.832H8.375c-2.484 0-3.413-1.103-3.422-2.832-.001-1.732.948-2.817 3.413-2.817zM60.227 29.7h-8.96V.01L45.817 0v34.65h14.42zm10.189 5.749c5.333 0 8.266-3.161 8.266-8.718l-.008-18.014C78.682 3.17 75.749.009 70.405 0c-5.341 0-8.263 3.17-8.263 8.717v18.02c.001 5.542 2.917 8.712 8.274 8.712zm-.01-30.489c1.732 0 2.828.94 2.828 3.403v18.726c0 2.464-1.096 3.408-2.828 3.408-1.729 0-2.822-.944-2.811-3.412l-.012-18.722c0-2.463 1.086-3.411 2.823-3.403zm17.198 15.388h7.033l.009-4.951h-7.042V4.96h8.962V0L82.171.01l-.007 34.64h5.44zM103.29 34.65h5.446l-.011-29.2h5.693V.01L97.598 0l-.005 5.45 5.697.005zm-57.473 7.281l.009 68.599h68.592l.008-68.599H45.817zm30.897 34.206l-25.931 25.931-.008-51.87 25.939 25.939zM54.473 46.886h51.494L80.218 72.633 54.473 46.886zm25.746 32.756l25.931 25.931H54.286l25.933-25.931zm3.504-3.504l25.745-25.744-.006 51.484-25.739-25.74z"/>
    </g>
</svg>